<svg xmlns="http://www.w3.org/2000/svg" xmlns:xlink="http://www.w3.org/1999/xlink" version="1.1" id="Layer_1" x="0px" y="0px" enable-background="new 0 0 624 576" xml:space="preserve" viewBox="165.08 168.9 359.53 290.73">
<path fill="#000000" opacity="1.000000" stroke="none" d=" M377.676422,394.538239   C374.281586,399.062927 370.928925,402.847473 365.352448,404.343811   C359.872284,405.814270 355.058105,409.106628 350.765320,412.739044   C347.896820,415.166199 344.904816,417.803009 341.659637,415.506470   C338.304108,413.131805 336.616913,409.148285 337.578186,404.477325   C338.314087,400.901581 339.773407,397.578888 340.637634,394.030884   C343.054688,384.107605 339.308838,374.412659 340.471375,364.579468   C341.373779,356.946320 340.478546,349.216736 340.783661,341.509430   C341.035706,335.143005 342.814331,329.552673 344.965302,323.846161   C347.926117,315.991058 348.750122,307.731720 349.597809,299.467712   C350.173065,293.859650 351.363220,288.435699 354.040497,283.341705   C356.297119,279.047974 354.019165,274.234222 355.206085,269.589355   C356.883698,263.024353 358.751953,256.330933 361.149323,250.226135   C365.081940,240.211929 365.169281,229.514801 368.729126,219.529404   C370.151855,215.538696 372.274597,211.806152 373.263428,207.561722   C373.740997,205.511841 374.220764,203.561447 374.316284,201.434296   C374.433868,198.816055 374.535309,195.952179 371.447815,195.440689   C368.253784,194.911560 364.621429,195.722107 363.595032,199.272095   C362.507751,203.032791 360.642578,206.550400 360.305756,210.595352   C359.997375,214.298584 359.792999,218.028046 357.517029,221.453232   C355.883972,223.910843 355.617584,227.395218 356.514343,230.206192   C358.003845,234.875427 356.254425,238.210556 353.355804,241.421463   C351.372101,243.618851 350.513428,245.886597 352.594849,248.562912   C353.050323,249.148575 353.352417,250.092590 353.270569,250.820496   C352.326538,259.216736 350.223846,267.109161 345.671661,274.513123   C343.229218,278.485626 341.638519,283.599274 344.387817,288.578613   C345.363770,290.346252 344.819702,291.790466 343.178589,292.827332   C337.363098,296.501617 335.878662,301.861542 337.066528,308.302185   C337.667450,311.560333 338.054077,314.841827 337.216370,318.114868   C336.232635,321.958557 335.563019,325.786224 337.094421,329.649963   C337.647919,331.046478 337.238922,332.406830 336.382965,333.409271   C334.302429,335.845734 330.868225,337.784729 334.037964,341.676056   C326.992981,348.688202 333.173248,358.255096 329.122772,366.391876   C326.599915,371.459869 328.308258,378.723511 328.474335,384.992340   C328.532562,387.191101 328.381287,389.264557 327.981201,391.393372   C327.624268,393.292297 326.960449,394.465302 324.715393,394.143188   C322.718872,393.856720 320.893219,393.221313 320.895325,390.992279   C320.898712,387.395874 319.106903,383.765747 320.891479,380.209290   C322.238525,377.524811 319.107086,375.983093 319.505615,373.199951   C320.560272,365.834961 321.520111,358.327240 321.230377,350.926697   C320.682892,336.941223 325.000793,323.576294 325.516144,309.785278   C325.607574,307.338623 326.368439,304.273926 323.185181,302.856476   C323.236023,301.206879 326.046021,301.193298 325.282593,299.772522   C322.631592,294.839111 323.779388,289.039612 321.188293,284.049194   C316.383514,274.795380 308.567505,272.716492 300.523376,279.382172   C297.925262,281.535065 293.882233,282.948914 294.131042,287.627869   C294.210236,289.117065 292.385773,289.410889 291.317352,290.161499   C288.972290,291.808960 286.813751,293.672729 286.663147,296.862854   C286.503784,300.239075 282.025970,300.872528 282.059357,304.673004   C282.088287,307.968872 278.174561,309.619171 277.631409,313.238464   C277.162231,316.364441 275.067932,319.246521 273.653442,322.320312   C269.849335,321.345337 268.529053,320.624603 268.752808,315.726135   C269.273529,304.326843 271.163086,292.722229 268.320129,281.356842   C267.461609,277.924744 268.101044,274.435791 266.986847,271.007812   C265.603271,266.751068 263.121521,262.453552 259.132996,262.376038   C255.152069,262.298676 250.903107,265.650085 249.449982,269.892670   C245.717957,280.788757 242.213501,291.765930 238.972641,302.836578   C235.958389,313.133148 235.188690,323.839294 232.035934,334.221039   C230.808884,329.902435 228.936447,325.799133 230.025879,321.216522   C230.285675,320.123627 230.891571,319.226562 230.489746,317.899902   C226.148575,303.567413 226.156143,288.487549 223.031204,273.938660   C222.322861,270.640808 223.440491,268.342926 226.918106,267.619141   C229.525314,267.076569 232.233414,266.014343 234.765930,266.308441   C241.934464,267.140991 248.269104,265.431335 254.536774,262.038239   C258.667786,259.801849 260.177521,255.744308 261.563232,252.232666   C266.463409,239.814926 276.086914,230.295868 281.533661,218.287964   C282.071320,217.102631 283.087982,216.132248 283.610565,214.942719   C289.883331,200.663834 300.566559,191.415588 315.504364,187.164307   C321.004852,185.598907 326.181061,183.388214 331.097290,180.548096   C335.136444,178.214661 339.332642,177.266434 344.018829,177.800171   C353.013916,178.824646 361.575775,177.075485 369.698456,173.119873   C374.263092,170.896973 379.006775,169.654480 384.157257,169.892258   C394.151978,170.353699 404.132019,169.694427 414.088257,168.955963   C421.005402,168.442886 426.462616,171.235535 431.124329,175.808838   C434.079803,178.708267 436.791138,181.936905 439.165405,185.330338   C443.132935,191.001022 447.575684,196.323624 453.517517,199.744171   C464.653381,206.154785 471.034912,215.824707 474.504425,227.773254   C476.554352,234.832947 479.375275,241.560165 482.628235,248.128128   C484.598541,252.106384 485.093262,256.334778 485.123230,260.744171   C485.189819,270.557037 487.061737,280.231171 487.347687,290.075012   C487.579193,298.043579 493.168335,303.943970 498.259460,309.794678   C508.017548,321.008545 516.480042,333.114532 521.417175,347.293060   C524.071716,354.916321 523.952942,363.049591 524.600525,370.983490   C524.852173,374.066071 522.232849,376.446625 519.151855,377.416718   C514.837646,378.775085 512.247681,381.820099 510.217377,385.614380   C506.057892,393.387665 501.188354,394.614624 492.372437,393.153351   C479.561890,391.029968 466.841492,388.518677 454.096497,386.088196   C451.267273,385.548645 448.402435,385.817200 446.337952,388.367401   C445.251129,389.709930 443.937164,389.686096 442.300110,389.371307   C431.565979,387.307129 421.050781,395.964844 421.296631,406.685120   C421.370697,409.915955 422.919708,412.774475 425.340057,414.789734   C427.629333,416.695892 427.862854,418.266174 426.202789,420.688110   C421.855652,427.030212 417.750031,433.202515 409.253510,435.019043   C402.472900,436.468719 396.887878,440.877991 392.069855,445.768372   C387.748840,450.154297 382.497894,452.234833 376.817474,453.782623   C371.355957,455.270782 365.810852,456.545349 360.497955,458.457092   C356.112457,460.035187 351.998108,460.114014 347.932617,458.075928   C341.143280,454.672363 333.826752,454.222076 326.507141,454.311890   C320.082153,454.390778 313.893127,453.145081 307.744141,451.763397   C302.074860,450.489532 297.300598,451.759552 292.651794,454.933044   C287.146118,458.691559 276.789429,453.623352 276.921478,447.033142   C276.993073,443.457825 275.584076,441.304413 273.003723,439.578613   C265.489746,434.553101 260.648041,426.426758 252.575409,422.055664   C252.034241,421.762604 251.518356,421.157715 251.295731,420.580292   C245.669907,405.988831 241.967865,391.066467 241.484879,375.264465   C240.946747,357.658875 243.830963,340.612885 247.224167,323.472687   C248.893875,315.038330 250.908813,306.814453 253.772568,298.747101   C254.262329,297.367493 254.800995,296.252594 256.402191,296.225464   C258.128479,296.196167 258.213928,297.518738 258.768036,298.814941   C263.670135,310.282684 260.331573,322.007935 259.870575,333.607880   C259.789398,335.650421 260.347626,337.514038 260.279877,339.362854   C260.038269,345.958130 262.452789,352.551544 261.460114,358.835876   C260.773163,363.184845 260.987854,366.966980 262.048309,370.908813   C262.863434,373.938629 264.700714,376.553101 268.098083,376.757263   C271.753662,376.976868 273.773285,374.366913 275.071320,371.297241   C277.560883,365.409760 277.950409,358.975433 278.469635,352.827637   C279.316559,342.800446 281.655396,332.956726 285.060760,323.925720   C290.086823,310.596771 297.233154,297.878754 308.418396,288.140686   C310.319244,288.915375 312.136322,289.655945 314.540131,290.635620   C314.540131,299.150604 314.178619,307.937103 314.703461,316.670288   C314.940613,320.616455 311.920013,323.237640 312.226227,327.168335   C312.670929,332.876312 313.849884,338.634888 311.882233,344.459503   C310.913116,347.328339 311.899597,350.588654 313.715881,353.598480   C309.708069,354.087646 309.590118,356.873566 309.641113,359.597687   C309.735657,364.651123 311.344208,370.159821 309.834717,374.640961   C307.813385,380.641632 309.914948,386.009399 310.047180,391.576630   C310.249573,400.096924 316.510101,405.549072 322.720581,410.277710   C327.289551,413.756500 330.242004,418.329742 333.456146,422.784485   C336.261719,426.672943 342.702271,429.438538 346.971008,428.066589   C360.755341,423.636536 373.266632,416.720459 384.903046,408.204041   C389.272095,405.006378 392.058868,400.664185 394.357880,395.635193   C398.725372,386.081360 401.602081,376.035919 405.155640,366.219635   C406.746948,361.823792 407.131866,357.143829 406.597382,352.445496   C406.275787,349.618317 405.313690,347.121613 402.228546,346.472046   C400.143494,346.033081 394.877289,350.511597 394.828827,352.805725   C394.695465,359.123657 391.806854,364.495850 389.251892,369.984772   C385.485504,378.076263 381.631287,386.126862 377.676422,394.538239  z"/>
<path fill="#000000" opacity="1.000000" stroke="none" d=" M171.402649,320.845276   C173.119263,312.905090 178.728455,306.909973 180.065247,299.115845   C180.708969,295.362518 185.282288,294.252136 186.417252,290.524750   C186.863983,290.672852 187.310699,290.820953 187.757431,290.969055   C187.452545,295.275269 187.911133,299.831421 186.608353,303.810944   C185.507965,307.172302 184.922470,310.532562 184.333221,313.923859   C183.775009,317.136505 182.653931,320.103577 181.671722,323.147034   C179.743317,329.122437 179.181870,335.789764 181.949554,341.916748   C183.151703,344.578003 185.568878,346.385132 188.802719,345.906158   C192.238098,345.397339 195.068375,343.886658 196.608124,340.468567   C198.732834,335.751831 197.985489,330.679535 198.541016,325.780029   C200.426620,309.149567 200.069138,293.356537 209.296844,280.262268   C215.647827,299.073608 216.772049,318.147278 219.576355,336.781555   C222.412399,355.626770 223.317383,374.762573 225.095337,394.064758   C221.820328,394.760223 218.720215,393.551422 216.111130,392.306549   C208.726242,388.783020 201.979462,384.312347 197.391693,377.131409   C192.311157,369.179108 184.591339,363.646759 178.184341,356.904877   C175.210724,353.775787 171.971313,350.866669 169.262665,347.525238   C163.639069,340.587891 163.711639,331.908569 169.366119,325.127502   C170.417740,323.866333 170.432251,322.376373 171.402649,320.845276  z"/>
<path fill="#000000" opacity="1.000000" stroke="none" d=" M488.774780,409.790649   C491.394989,407.756958 494.249695,406.765778 496.038330,409.464996   C498.057556,412.512207 497.570435,416.072113 495.299896,419.186157   C493.611816,421.501434 491.393433,421.845062 489.317810,420.232727   C485.517883,417.280792 486.720032,413.637451 488.774780,409.790649  z"/>
</svg>